<svg xmlns="http://www.w3.org/2000/svg" viewBox="0 0 1200 800" width="1200" height="800">
  <defs>
    <linearGradient id="p2bg" x1="0" y1="0" x2="1" y2="1">
      <stop offset="0%" stop-color="#080B12"/>
      <stop offset="100%" stop-color="#140909"/>
    </linearGradient>
  </defs>
  <rect width="1200" height="800" fill="url(#p2bg)"/>

  <!-- Browser Frame -->
  <rect x="60" y="60" width="1080" height="680" rx="18" fill="#101319" stroke="rgba(255,255,255,0.1)" stroke-width="1.5"/>
  <rect x="60" y="60" width="1080" height="50" rx="18" fill="#151922"/>
  <circle cx="95" cy="85" r="6" fill="#FF5F56"/>
  <circle cx="115" cy="85" r="6" fill="#FFBD2E"/>
  <circle cx="135" cy="85" r="6" fill="#27C93F"/>
  <text x="600" y="89" font-family="'Space Grotesk', sans-serif" font-size="11" fill="#A3A3A3" text-anchor="middle">flyhorizon.portal / booking-engine / routes</text>

  <!-- Flight Search Banner -->
  <rect x="100" y="140" width="1000" height="150" rx="14" fill="#161B26" stroke="rgba(255,43,43,0.3)"/>
  <text x="140" y="180" font-family="'Space Grotesk', sans-serif" font-size="14" font-weight="700" fill="#FF2B2B" letter-spacing="2">AIRLINE RESERVATION SYSTEM</text>
  
  <rect x="140" y="205" width="220" height="55" rx="8" fill="#202636"/>
  <text x="160" y="228" font-family="'Inter', sans-serif" font-size="11" fill="#8892B0">ORIGIN</text>
  <text x="160" y="248" font-family="'Space Grotesk', sans-serif" font-size="16" font-weight="700" fill="#FFF">BOM • MUMBAI</text>

  <circle cx="390" cy="232" r="18" fill="#FF2B2B"/>
  <path d="M 383 232 L 397 232 M 392 227 L 397 232 L 392 237" stroke="#FFF" stroke-width="2" fill="none"/>

  <rect x="420" y="205" width="220" height="55" rx="8" fill="#202636"/>
  <text x="440" y="228" font-family="'Inter', sans-serif" font-size="11" fill="#8892B0">DESTINATION</text>
  <text x="440" y="248" font-family="'Space Grotesk', sans-serif" font-size="16" font-weight="700" fill="#FFF">DXB • DUBAI</text>

  <rect x="670" y="205" width="180" height="55" rx="8" fill="#202636"/>
  <text x="690" y="228" font-family="'Inter', sans-serif" font-size="11" fill="#8892B0">TRAVEL DATE</text>
  <text x="690" y="248" font-family="'Space Grotesk', sans-serif" font-size="15" font-weight="700" fill="#FFF">28 OCT 2026</text>

  <rect x="880" y="205" width="180" height="55" rx="8" fill="#FF2B2B"/>
  <text x="970" y="238" font-family="'Space Grotesk', sans-serif" font-size="14" font-weight="700" fill="#FFF" text-anchor="middle">SEARCH FLIGHTS ↗</text>

  <!-- Flight Result Cards -->
  <g transform="translate(100, 320)">
    <rect x="0" y="0" width="1000" height="120" rx="12" fill="#141822" stroke="rgba(255,255,255,0.08)"/>
    <text x="40" y="45" font-family="'Space Grotesk', sans-serif" font-size="20" font-weight="800" fill="#FFF">AIR HORIZON</text>
    <text x="40" y="70" font-family="'Inter', sans-serif" font-size="12" fill="#8892B0">Flight HZ-842 • Boeing 787-9</text>
    <rect x="40" y="82" width="70" height="22" rx="4" fill="#222A3A"/>
    <text x="75" y="97" font-family="'Space Grotesk', sans-serif" font-size="10" font-weight="700" fill="#FF2B2B" text-anchor="middle">NON-STOP</text>

    <text x="320" y="55" font-family="'Space Grotesk', sans-serif" font-size="24" font-weight="800" fill="#FFF">06:40</text>
    <text x="320" y="75" font-family="'Inter', sans-serif" font-size="12" fill="#8892B0">BOM</text>

    <line x1="420" y1="58" x2="580" y2="58" stroke="rgba(255,43,43,0.6)" stroke-width="2" stroke-dasharray="6 4"/>
    <circle cx="500" cy="58" r="10" fill="#FF2B2B"/>
    <text x="500" y="45" font-family="'Inter', sans-serif" font-size="11" fill="#A3A3A3" text-anchor="middle">3h 30m</text>

    <text x="630" y="55" font-family="'Space Grotesk', sans-serif" font-size="24" font-weight="800" fill="#FFF">10:10</text>
    <text x="630" y="75" font-family="'Inter', sans-serif" font-size="12" fill="#8892B0">DXB</text>

    <text x="820" y="55" font-family="'Space Grotesk', sans-serif" font-size="24" font-weight="800" fill="#FF2B2B">$340</text>
    <rect x="800" y="70" width="160" height="36" rx="6" fill="#FF2B2B"/>
    <text x="880" y="93" font-family="'Space Grotesk', sans-serif" font-size="12" font-weight="700" fill="#FFF" text-anchor="middle">RESERVE SEAT ↗</text>

    <rect x="0" y="145" width="1000" height="120" rx="12" fill="#141822" stroke="rgba(255,255,255,0.08)"/>
    <text x="40" y="190" font-family="'Space Grotesk', sans-serif" font-size="20" font-weight="800" fill="#FFF">EMIRATES CONNECT</text>
    <text x="40" y="215" font-family="'Inter', sans-serif" font-size="12" fill="#8892B0">Flight EC-209 • Airbus A350</text>
    
    <text x="320" y="200" font-family="'Space Grotesk', sans-serif" font-size="24" font-weight="800" fill="#FFF">14:15</text>
    <text x="320" y="220" font-family="'Inter', sans-serif" font-size="12" fill="#8892B0">BOM</text>

    <line x1="420" y1="203" x2="580" y2="203" stroke="rgba(255,43,43,0.6)" stroke-width="2" stroke-dasharray="6 4"/>
    <circle cx="500" cy="203" r="10" fill="#FF2B2B"/>
    <text x="500" y="190" font-family="'Inter', sans-serif" font-size="11" fill="#A3A3A3" text-anchor="middle">3h 40m</text>

    <text x="630" y="200" font-family="'Space Grotesk', sans-serif" font-size="24" font-weight="800" fill="#FFF">17:55</text>
    <text x="630" y="220" font-family="'Inter', sans-serif" font-size="12" fill="#8892B0">DXB</text>

    <text x="820" y="200" font-family="'Space Grotesk', sans-serif" font-size="24" font-weight="800" fill="#FF2B2B">$385</text>
    <rect x="800" y="215" width="160" height="36" rx="6" fill="#222A3A" stroke="rgba(255,255,255,0.1)"/>
    <text x="880" y="238" font-family="'Space Grotesk', sans-serif" font-size="12" font-weight="700" fill="#FFF" text-anchor="middle">RESERVE SEAT ↗</text>
  </g>
</svg>