<svg xmlns="http://www.w3.org/2000/svg" viewBox="0 0 1200 800" width="1200" height="800">
  <defs>
    <linearGradient id="p5bg" x1="0" y1="0" x2="1" y2="1">
      <stop offset="0%" stop-color="#08080C"/>
      <stop offset="100%" stop-color="#1B0909"/>
    </linearGradient>
  </defs>
  <rect width="1200" height="800" fill="url(#p5bg)"/>

  <g transform="translate(100, 100)">
    <text x="0" y="50" font-family="'Space Grotesk', sans-serif" font-size="36" font-weight="800" fill="#FFF">AICRUIT</text>
    <text x="0" y="85" font-family="'Space Grotesk', sans-serif" font-size="14" font-weight="700" fill="#FF2B2B" letter-spacing="2">AI JOB MATCHING &amp; RESUME EXTRACTOR</text>
    <text x="0" y="125" font-family="'Inter', sans-serif" font-size="15" fill="#A3A3A3">Kotlin Android client backed by Firebase &amp; AI candidate match score.</text>

    <rect x="0" y="170" width="480" height="420" rx="14" fill="#141418" stroke="rgba(255,43,43,0.3)"/>
    <text x="30" y="210" font-family="'Space Grotesk', sans-serif" font-size="16" font-weight="700" fill="#FFF">Candidate Skill Compatibility</text>
    
    <circle cx="240" cy="380" r="140" fill="none" stroke="rgba(255,255,255,0.08)" stroke-width="1"/>
    <circle cx="240" cy="380" r="90" fill="none" stroke="rgba(255,255,255,0.08)" stroke-width="1"/>
    <circle cx="240" cy="380" r="40" fill="none" stroke="rgba(255,255,255,0.08)" stroke-width="1"/>

    <polygon points="240,260 350,330 320,460 160,450 140,320" fill="rgba(255,43,43,0.25)" stroke="#FF2B2B" stroke-width="2"/>
    <circle cx="240" cy="260" r="5" fill="#FF2B2B"/>
    <circle cx="350" cy="330" r="5" fill="#FF2B2B"/>
    <circle cx="320" cy="460" r="5" fill="#FF2B2B"/>
    <circle cx="160" cy="450" r="5" fill="#FF2B2B"/>
    <circle cx="140" cy="320" r="5" fill="#FF2B2B"/>

    <text x="240" y="245" font-family="'Inter', sans-serif" font-size="11" fill="#FFF" text-anchor="middle">Python/ML (95%)</text>
    <text x="370" y="335" font-family="'Inter', sans-serif" font-size="11" fill="#FFF">Systems (82%)</text>
    <text x="340" y="480" font-family="'Inter', sans-serif" font-size="11" fill="#FFF">DevOps (75%)</text>
    <text x="140" y="470" font-family="'Inter', sans-serif" font-size="11" fill="#FFF">APIs (88%)</text>
    <text x="110" y="315" font-family="'Inter', sans-serif" font-size="11" fill="#FFF">Frontend (78%)</text>
  </g>

  <g transform="translate(680, 80)">
    <rect x="0" y="0" width="380" height="660" rx="36" fill="#121215" stroke="rgba(255,255,255,0.15)" stroke-width="3"/>
    <rect x="130" y="15" width="120" height="20" rx="10" fill="#090909"/>
    <circle cx="230" cy="25" r="4" fill="#222"/>

    <g transform="translate(20, 50)">
      <text x="20" y="35" font-family="'Space Grotesk', sans-serif" font-size="18" font-weight="800" fill="#FFF">Job Discovery</text>
      <circle cx="300" cy="28" r="16" fill="#202020"/>
      <text x="300" y="33" font-family="'Inter', sans-serif" font-size="12" fill="#FF2B2B" text-anchor="middle">98%</text>

      <rect x="10" y="60" width="320" height="240" rx="16" fill="#1B1B22" stroke="rgba(255,43,43,0.35)"/>
      <rect x="25" y="75" width="60" height="60" rx="10" fill="#FF2B2B"/>
      <text x="55" y="112" font-family="'Space Grotesk', sans-serif" font-size="20" font-weight="800" fill="#FFF" text-anchor="middle">AI</text>

      <text x="100" y="95" font-family="'Space Grotesk', sans-serif" font-size="16" font-weight="700" fill="#FFF">Sr. Full-Stack Dev</text>
      <text x="100" y="118" font-family="'Inter', sans-serif" font-size="12" fill="#A3A3A3">Remote • Global AI Labs</text>

      <rect x="25" y="150" width="100" height="26" rx="6" fill="#272733"/>
      <text x="75" y="167" font-family="'Inter', sans-serif" font-size="11" fill="#FFF" text-anchor="middle">Kotlin / Python</text>

      <rect x="135" y="150" width="80" height="26" rx="6" fill="#272733"/>
      <text x="175" y="167" font-family="'Inter', sans-serif" font-size="11" fill="#FFF" text-anchor="middle">FastAPI</text>

      <text x="25" y="215" font-family="'Inter', sans-serif" font-size="12" fill="#A3A3A3">Resume Match Score: 94%</text>
      <rect x="25" y="235" width="290" height="42" rx="8" fill="#FF2B2B"/>
      <text x="170" y="261" font-family="'Space Grotesk', sans-serif" font-size="13" font-weight="700" fill="#FFF" text-anchor="middle">APPLY WITH ONE TAP ↗</text>

      <rect x="10" y="320" width="320" height="150" rx="16" fill="#1B1B22" stroke="rgba(255,255,255,0.08)"/>
      <text x="25" y="355" font-family="'Space Grotesk', sans-serif" font-size="15" font-weight="700" fill="#FFF">AI Data Engineer</text>
      <text x="25" y="378" font-family="'Inter', sans-serif" font-size="12" fill="#A3A3A3">Hybrid • Cloud Neural Systems</text>
      <rect x="25" y="400" width="290" height="36" rx="8" fill="#272733"/>
      <text x="170" y="423" font-family="'Space Grotesk', sans-serif" font-size="12" font-weight="600" fill="#FFF" text-anchor="middle">VIEW DETAILS</text>
    </g>
  </g>
</svg>